<mxfile host="app.diagrams.net" modified="2023-02-24T14:26:25.988Z" agent="5.0 (Macintosh; Intel Mac OS X 10_15_7) AppleWebKit/537.36 (KHTML, like Gecko) Chrome/110.0.0.0 Safari/537.36 Edg/110.0.1587.50" etag="bcLYQ4NgVUCk1xjf-Xw-" version="20.8.23" type="github">
  <diagram name="Page-1" id="_hhD5sGpimFKaywnkH4Q">
    <mxGraphModel dx="714" dy="525" grid="1" gridSize="10" guides="1" tooltips="1" connect="1" arrows="1" fold="1" page="1" pageScale="1" pageWidth="850" pageHeight="1100" math="0" shadow="0">
      <root>
        <mxCell id="0" />
        <mxCell id="1" parent="0" />
        <mxCell id="gK-qq9koz0gKj9AlaYyN-1" value="hello" style="whiteSpace=wrap;html=1;" vertex="1" parent="1">
          <mxGeometry x="160" y="120" width="120" height="60" as="geometry" />
        </mxCell>
        <mxCell id="gK-qq9koz0gKj9AlaYyN-2" value="&lt;span style=&quot;white-space: pre;&quot;&gt;	&lt;/span&gt;nihao" style="whiteSpace=wrap;html=1;" vertex="1" parent="1">
          <mxGeometry x="330" y="130" width="120" height="60" as="geometry" />
        </mxCell>
        <mxCell id="gK-qq9koz0gKj9AlaYyN-3" value="kafka" style="whiteSpace=wrap;html=1;" vertex="1" parent="1">
          <mxGeometry x="160" y="240" width="120" height="60" as="geometry" />
        </mxCell>
        <mxCell id="gK-qq9koz0gKj9AlaYyN-4" value="" style="whiteSpace=wrap;html=1;" vertex="1" parent="1">
          <mxGeometry x="340" y="240" width="120" height="60" as="geometry" />
        </mxCell>
      </root>
    </mxGraphModel>
  </diagram>
</mxfile>
